<svg width="24" height="24" viewBox="0 0 24 24" fill="none" xmlns="http://www.w3.org/2000/svg">
<mask id="path-1-inside-1_2872_19371" fill="white">
<path fill-rule="evenodd" clip-rule="evenodd" d="M23 1H1L9 10.7778V22L15 18.5V10.7778L23 1Z"/>
</mask>
<path fill-rule="evenodd" clip-rule="evenodd" d="M23 1H1L9 10.7778V22L15 18.5V10.7778L23 1Z" fill="#6192D1"/>
<path d="M1 1V0H-1.11024L0.226043 1.63324L1 1ZM23 1L23.774 1.63324L25.1102 0H23V1ZM9 10.7778H10V10.4208L9.77396 10.1445L9 10.7778ZM9 22H8V23.741L9.50387 22.8638L9 22ZM15 18.5L15.5039 19.3638L16 19.0744V18.5H15ZM15 10.7778L14.226 10.1445L14 10.4208V10.7778H15ZM1 2H23V0H1V2ZM9.77396 10.1445L1.77396 0.366762L0.226043 1.63324L8.22604 11.411L9.77396 10.1445ZM10 22V10.7778H8V22H10ZM14.4961 17.6362L8.49613 21.1362L9.50387 22.8638L15.5039 19.3638L14.4961 17.6362ZM14 10.7778V18.5H16V10.7778H14ZM22.226 0.366762L14.226 10.1445L15.774 11.411L23.774 1.63324L22.226 0.366762Z" fill="#31609D" mask="url(#path-1-inside-1_2872_19371)"/>
</svg>
